<svg width="24" height="24" viewBox="0 0 24 24" fill="none" xmlns="http://www.w3.org/2000/svg">
<path d="M17.9919 16.2239L16.2236 17.9921L20.1585 21.927C20.2549 22.0234 20.4137 22.0234 20.5127 21.927L21.9268 20.5129C22.0231 20.4166 22.0231 20.2577 21.9268 20.1588L17.9919 16.2239Z" fill="#199BE2"/>
<path d="M15.7995 14.0312L14.0312 15.7995L16.224 17.9922L17.9922 16.224L15.7995 14.0312Z" fill="url(#paint0_radial_3653_164012)"/>
<path d="M18 10C18 14.4193 14.4193 18 10 18C5.58073 18 2 14.4193 2 10C2 5.58073 5.58073 2 10 2C14.4193 2 18 5.58073 18 10Z" fill="url(#paint1_linear_3653_164012)"/>
<defs>
<radialGradient id="paint0_radial_3653_164012" cx="0" cy="0" r="1" gradientUnits="userSpaceOnUse" gradientTransform="translate(10.012 10.048) scale(9.802)">
<stop offset="0.693" stop-color="#006185"/>
<stop offset="0.921" stop-color="#35C1F1"/>
</radialGradient>
<linearGradient id="paint1_linear_3653_164012" x1="4.4555" y1="4.4555" x2="15.6695" y2="15.6695" gradientUnits="userSpaceOnUse">
<stop stop-color="#A3FFFF"/>
<stop offset="0.223" stop-color="#9DFBFF"/>
<stop offset="0.53" stop-color="#8BF1FF"/>
<stop offset="0.885" stop-color="#6EE0FF"/>
<stop offset="1" stop-color="#63DAFF"/>
</linearGradient>
</defs>
</svg>
